<?xml version="1.0" encoding="UTF-8"?>
<svg width="74.507mm" height="108.09mm" version="1.1" viewBox="0 0 264.00001 382.99997" xmlns="http://www.w3.org/2000/svg">
 <path d="m146 307 63 16v8l-69-11z" fill="#999" fill-rule="evenodd" stroke="#000" stroke-width="1px"/>
 <circle cx="7.5" cy="175.5" r="7.5" fill="#4d4d4d"/>
 <g transform="matrix(.59091 0 0 .59091 12.318 53.104)">
  <path d="m18.907 489.27h11.185v22.185h-11.185z" fill-rule="evenodd" stroke="#000" stroke-width=".81456px"/>
  <circle cx="13" cy="524.86" r="16.5"/>
  <path d="m13 502.36a22 22 0 0 0 -22 22h44a22 22 0 0 0 -22 -22z"/>
 </g>
 <g transform="matrix(.59091 0 0 .59091 68.318 44.104)">
  <path d="m18.907 489.27h11.185v22.185h-11.185z" fill-rule="evenodd" stroke="#000" stroke-width=".81456px"/>
  <circle cx="13" cy="524.86" r="16.5"/>
  <path d="m13 502.36a22 22 0 0 0 -22 22h44a22 22 0 0 0 -22 -22z"/>
 </g>
 <path d="m32 350h-8l-1-11 103-29v16l-94 20z" fill="#999" fill-rule="evenodd" stroke="#000" stroke-width="1px"/>
 <path d="m126.29 305.71 0.0607-28.475h18l0.64641 28.768z" fill="#999" fill-rule="evenodd" stroke="#000" stroke-width="1px"/>
 <path d="m124 306 1-1-3 22 24 1-1-17 5 1-4-6.6464z" fill="#b3b3b3" fill-rule="evenodd" stroke="#000" stroke-width=".25"/>
 <path d="m31 341 92-24" fill="none" stroke="#000" stroke-width="2"/>
 <g transform="matrix(.59091 0 0 .59091 194.32 43.104)">
  <path d="m18.907 489.27h11.185v22.185h-11.185z" fill-rule="evenodd" stroke="#000" stroke-width=".81456px"/>
  <circle cx="13" cy="524.86" r="16.5"/>
  <path d="m13 502.36a22 22 0 0 0 -22 22h44a22 22 0 0 0 -22 -22z"/>
 </g>
 <g transform="matrix(.59091 0 0 .59091 224.32 58.104)">
  <path d="m18.907 489.27h11.185v22.185h-11.185z" fill-rule="evenodd" stroke="#000" stroke-width=".81456px"/>
  <circle cx="13" cy="524.86" r="16.5"/>
  <path d="m13 502.36a22 22 0 0 0 -22 22h44a22 22 0 0 0 -22 -22z"/>
 </g>
 <g transform="matrix(-.95168 0 0 1.0007 477.99 -321.79)">
  <path d="m257 671.36h-8l-1-11 103-29v16l-94 20z" fill="#999" fill-rule="evenodd" stroke="#000" stroke-width="1px"/>
  <path d="m256 662.36 92-24" fill="none" stroke="#000" stroke-width="2"/>
  <path d="m256 658.36 92-24" fill="none" stroke="#fff" stroke-width="2"/>
 </g>
 <path d="m31 337 92-24" fill="none" stroke="#fff" stroke-width="2"/>
 <g transform="matrix(.59091 0 0 .59091 108.32 63.104)">
  <path d="m18.907 489.27h11.185v22.185h-11.185z" fill-rule="evenodd" stroke="#000" stroke-width=".81456px"/>
  <circle cx="13" cy="524.86" r="16.5"/>
  <path d="m13 502.36a22 22 0 0 0 -22 22h44a22 22 0 0 0 -22 -22z"/>
 </g>
 <path d="m127 359v-8l13-29-1-11h-8l-13 41v12z" fill="#999" fill-rule="evenodd" stroke="#000" stroke-width="1px"/>
 <path d="m136 315-14 35" fill="none" stroke="#000" stroke-width="1px"/>
 <path d="m134 315-14 35" fill="none" stroke="#fff" stroke-width="1px"/>
 <path d="m135 277v27" fill="none" stroke="#000" stroke-width="2"/>
 <path d="m130.71 238.71h8.5714v38.571h-8.5714z" fill="#999" fill-rule="evenodd" stroke="#000" stroke-width=".42857px"/>
 <path d="m135 238.71v38.571" fill="none" stroke="#000"/>
 <path d="m125 241-50-30v-10h90v10l-20 30c-6.6667 4-13.333 4-20 0z" fill-rule="evenodd" stroke="#000" stroke-width="1px"/>
 <path d="m5 171 150 10v10l-150-10z" fill="#1a1a1a" fill-rule="evenodd" stroke="#000" stroke-width="1px"/>
 <ellipse cx="7.5" cy="174.62" rx="7.5" ry="6.6161" fill="#666"/>
 <circle cx="151.5" cy="184.5" r="7.5" fill="#1a1a1a"/>
 <path d="m55 181h-10l20 20c33.333 9.7577 66.667 2.7014 100 0l60.776-21.983-15.776-0.01661c-67.864 17.41-139.31 31.185-155-8z" fill-rule="evenodd" stroke="#000" stroke-width="1px"/>
 <path d="m152 227s23.929-12.071 31-5c4.714 4.714 0.19867 14.715 6 18 12.018-0.56138 21.305-10.379 13-23-11.785-11.785-50 0-50 0z" fill-rule="evenodd" stroke="#000" stroke-width="1px"/>
 <path d="m107 112s-3.6596-11.081-10-15c-19.849-12.267-49.246-15.793-70-5-7.0961 3.6901-7.5179 14.076-10 20-2.7685 6.6078-1.3807 31.548 2 40l8 20h10s-16.188-40.691-10-60c1.4386-4.4892 3.6448-12.196 8-14 15.398-6.3781 37.822-4.7622 52 4 6.3404 3.9186 3.6596 16.081 10 20 2.8355 1.7524 10 0 10 0z" fill="#999" fill-rule="evenodd" stroke="#000" stroke-width="1px"/>
 <path d="m5 171c6.0197-7.646 43.381-10.343 100-10 10.77-11.795 7.7952-25.553 0-40v-30c2.5812-33.064 6.8686-64.849 20-90h134v10c-18.861 35.431-16.004 60.002-24 90 11.483 24.075 14.516 41.925 10 58-2.2123 8.8939-7.1793 16.41-20 20-27.334 0.57114-60.195-3.5955-70 12l-150-10z" fill="#1a1a1a" fill-rule="evenodd" stroke="#000" stroke-width="1px"/>
 <path d="m99.121 111.94s-4.4962-8.0547-7.8891-11.525c-7.0756-7.2375-17.148-9.5488-27.232-10.414-7.7033-0.66109-15.683 0.50276-23 3-4.3826 1.4957-8.8327 3.6218-12 7-3.0588 3.2625-4.9725 7.6475-6 12-2.1444 9.0837-1.2606 18.752 0 28 0.84104 6.1701 5 18 5 18" fill="none" stroke="#000" stroke-width="1px"/>
 <path d="m102 110s-7.6072-9.5295-11-13c-7.0756-7.2375-18.916-8.1346-29-9-7.7033-0.66109-15.683 0.50276-23 3-4.3826 1.4957-8.8327 3.6218-12 7-3.0588 3.2625-4.9725 7.6475-6 12-2.1444 9.0837-1.2606 18.752 0 28 0.84104 6.1701 5.3536 20.121 5.3536 20.121" fill="none" stroke="#fff" stroke-width="1px"/>
 <path d="m132 19 105 1" fill="none" stroke="#999" stroke-width="1px"/>
 <path d="m128 41 105 1" fill="none" stroke="#999" stroke-width="1px"/>
 <path d="m124 59 105 1" fill="none" stroke="#999" stroke-width="1px"/>
 <path d="m118 79 105 1" fill="none" stroke="#999" stroke-width="1px"/>
 <path d="m114 99 105 1" fill="none" stroke="#999" stroke-width="1px"/>
 <path d="m118 119 105 1" fill="none" stroke="#999" stroke-width="1px"/>
 <path d="m120 139 105 1" fill="none" stroke="#999" stroke-width="1px"/>
 <path d="m120 155 105 1" fill="none" stroke="#999" stroke-width="1px"/>
 <path d="m10.293 168.12 143.46 7.6464" fill="none" stroke="#666" stroke-width="1px"/>
 <circle cx="256.5" cy="7.5" r="7.5" fill="#666"/>
 <circle cx="154.5" cy="183.5" r="7.5" fill="#666"/>
 <path d="m34 96c-12.651 7.1956-17.052 3.3256-7-13.404 0 0 39.235-6.0051 55-0.59619 7.1897 2.4669 18 14 18 14 4.352 8.9483 1.7899 12.365-8 10 0 0-9.6271-10.043-16-12-13.398-4.1146-42 2-42 2z" fill-rule="evenodd" stroke="#000" stroke-width="1px"/>
 <path d="m252 111s-3.6596-11.081-10-15c-19.849-12.267-49.675-16.581-70-5-6.476 3.6901-10 20-10 20-2.9518 5.2704-2.5395 28.651 2 40l8 20h10s-16.188-40.691-10-60c1.4386-4.4892 3.6448-12.196 8-14 15.398-6.3781 37.822-4.7622 52 4 6.3404 3.9186 3.6596 16.081 10 20 2.8355 1.7524 10 0 10 0z" fill="#999" fill-rule="evenodd" stroke="#000" stroke-width="1px"/>
 <path d="m245.18 114.12s-5.5569-10.883-8.9498-14.354c-7.0756-7.2375-17.148-9.9023-27.232-10.768-7.7033-0.66109-15.683 0.50276-23 3-4.3826 1.4957-8.8327 3.6218-12 7-3.0588 3.2625-4.9725 7.6475-6 12-2.1444 9.0837-1.2606 18.752 0 28 0.84104 6.1701 5 18 5 18" fill="none" stroke="#000" stroke-width="1px"/>
 <path d="m247 113s-7.6072-13.53-11-17c-7.0756-7.2375-18.916-8.1346-29-9-7.7033-0.66109-15.683 0.50276-23 3-4.3826 1.4957-8.8327 3.6218-12 7-3.0588 3.2625-4.9725 7.6475-6 12-2.1444 9.0837-1.2606 18.752 0 28 0.84104 6.1701 5 18 5 18" fill="none" stroke="#fff" stroke-width="1px"/>
 <path d="m181.08 94.586c-12.651 7.1956-17.052 3.3256-7-13.404 0 0 39.235-6.0051 55-0.59619 7.1897 2.4669 18 14 18 14 4.352 8.9483 1.7899 12.365-8 10 0 0-9.6271-10.043-16-12-13.398-4.1146-42 2-42 2z" fill-rule="evenodd" stroke="#666" stroke-width="1px"/>
 <path d="m206 323-58-15" fill="none" stroke="#fff" stroke-width="1px"/>
 <path d="m206 325-58-15" fill="none" stroke="#000" stroke-width="1px"/>
 <path d="m126.22 306.99c3.7639 1.3902 12.267 2.1426 19.799 0.70711" fill="none" stroke="#fff" stroke-width="1px"/>
</svg>
